<svg xmlns="http://www.w3.org/2000/svg" viewBox="0 0 237.3 128.1"><title>Minnesota Twins wordmark logo</title><path fill="#091F40" d="M75 23.5c8.4-.9 15.4-2.9 19.2-6.7l3.6-9.5c-6.2 5-14.5 6.2-22.6 6.2-8.9 0-21.7-1.6-31.4-1.4-16.8.3-28.5 6-33.8 21.1l9.7 10.4c3.4-12.6 9.7-17 23.3-18.2.5 0 1-.1 1.6-.1-1 6.1-1.9 10.8-3 16.3-1.8 9.4-4.2 21-6.7 34.1-2.5 12.8-4.6 21.4-8.9 31.9 5.9-3 12.9-6.1 18.5-8.5-.2-6.1.3-11 2.4-22.1 2.2-12.2 4.5-23.7 6.4-33.2 1.3-6.9 2.6-13 3.9-19.1 6.3-.4 13.3-.8 17.8-1.2m68.9-8.5c4.7 0 8.2-3.6 8.2-8 0-4.1-3-7-7.2-7-4.8 0-8.1 3.7-8.1 8.1 0 4.2 3 6.9 7.1 6.9m-90 102.9c8.8 2.8 17.5 6.3 24.9 10.1 26-21.8 65.7-36.6 121.8-51.1l1.1-6.4L158.4 81c-42.7 10.3-82 21.9-104.5 36.9" style="fill:#ffffff"/><path fill="#091F40" d="M219 13.8c0-1.3.2-3.2 1-5.4l-13.8 2.7c-.1 11.3-4.9 26.1-10 35.2-2.8 5-5.1 7.2-6.9 7.7-.9.3-1.8.1-2.3-.6-.6-.8-.7-2-.3-4.2.9-4.9 3.1-12 4.2-17.2 1.3-6.5.4-10.9-2.3-13.9-2.6-2.7-6.6-3.7-10.3-3-4.6.8-8.2 4-10.4 7.3 0-1.4 0-2.8-.1-4l-9.8 1.9c.4 4.9 0 8.9-1.5 16l-5 23.1c-2.2 3.7-4.5 5.8-6.8 6.3-1.7.4-2.7-.2-3.3-.9-.8-1-.9-2.5-.2-6.5l4.2-21c1.4-7.2 2.3-11.4 3.1-15.1L135 25c.6 2.7.1 6.9-2.5 9.9-3 3.5-7.7 4-8.7 1 .4-2.7.9-6.1 1.3-9L112 29.4c.6 4.8.4 8.8-.9 15.7-1 5.5-3 14.4-5.6 20.7-1.7 4.1-3.9 7.7-6.9 8.5-1.4.3-2.7 0-3.5-1-.9-1.2-.9-3-.3-6.3 1-4.8 2.6-12.4 4.4-21.4 1-5.3 2.1-10.6 3-14.3L88.5 34c.6 4.6.2 9.2-.9 14.9-1.6 8.5-3.1 14.9-3.9 18.6-.3 1.1-.5 2.3-.7 3.5-2.3 5.6-5.1 8.8-7.8 9.4-1.3.3-2.6 0-3.4-1-.9-1.1-1.1-3-.5-6.6.8-4.5 2.1-10.7 4.4-21.9 1.2-6 2.2-10.9 3.2-15L65 38.5c.5 4.6.5 8-.9 15-1.2 5.7-3 14.2-3.8 19-.9 5.2-.5 10.1 2.5 13.7 3 3.4 7.7 4.6 12.2 3.6 4.1-1 8.3-4 11.6-9.4 3 3.2 7.6 4.6 12.9 3.1 6.8-1.9 12.1-7.9 15.9-16.2 2.6-5.6 4.6-12.4 6.5-21.3 3.8.8 8.5-.8 11.6-4.5l-3.6 17.8c-1 5.2-.4 8.4 1.3 10.8 2.7 3.7 7.2 4.2 10.8 3.3 2.9-.6 5.8-2.3 8.4-4.8l10.5-2.5 6-28c2.5-7.9 6.2-12.6 9.4-13.2 1.3-.3 2.4.1 3 .8.8.9 1 2.5.5 5.3-.8 4.5-2.9 11.3-4.1 17.1-1.3 6.1-.5 9.7 1.5 12.1 2.4 2.8 6.3 3.8 10.2 2.8 6.2-1.5 11.1-7.4 14.9-14.4 3.6-6.6 6.8-15.2 9-22.7 3.1 6.7 7.1 11.3 7.1 16.6 0 6.9-6.2 9.1-12.6 6.7l-1.9 9.9c12.5 3.1 25.3-2.9 25.3-16.4 0-12-10.2-18.5-10.2-28.9m4.1 49.4h-1.3v3.4h-.8v-3.4h-1.3v-.7h3.4v.7zm5.7 3.4h-.8v-3.3l-1.2 3.3h-.8l-1.2-3.3v3.3h-.8v-4.2h1.5l1 2.7 1-2.7h1.5v4.2z" style="fill:#ffffff"/></svg>