<svg xmlns="http://www.w3.org/2000/svg" viewBox="0 0 83.4 72"><mask id="ink-435" maskUnits="userSpaceOnUse" x="0" y="0" width="83.4" height="72"><g fill="#fff"><path d="M81.5 38.3c-.2-1.6-.8-3.2-1.8-4.6-.1-.1-.4-.6-.5-.6l4.2-.3-6.2-12.2-4.8-.3c-.8-.1-1.5-.1-2.3-.1-.9 0-1.9.2-2.8.4l1.8-1.9-.1-17-9.2 1.7C53.6 1.2 47 .1 40.3 0 17.4 0 .9 14.8.1 36c0 0-.1 1.2-.1 1.6C0 56.6 18.6 72 41.5 72c20.2 0 29.8-11.3 30.3-11.8l1.9-2.2-6-6.7-.3-.3c1.9.2 3.7.2 5.6-.1 2.1-.4 3.9-1.5 5.4-3 1.4-1.4 2.4-3.1 2.9-5 .3-1.6.4-3.1.2-4.6" fill="#000"/><path d="M61.6 49.7c-4.8 6-12 9.6-19.7 9.7-14.3 0-23.3-12.4-23.3-23.2 0-12.2 9.2-23.7 22.5-23.7 9.1 0 15.2 3.1 20.2 9.8l4.4-4.8V5.9L59.6 7C29.6-4.1 3.4 11.4 3.4 37.6c0 16.2 15.8 31 38.1 31 18.9 0 27.6-10.5 27.6-10.5l-7.5-8.4" fill="#fff"/><path d="M64.9 18.4C59.1 11.7 50.6 7.9 41.7 8 25.3 8 12 20.4 12 35.7v.5h6.6c0-12.2 9.2-23.7 22.5-23.7 9.1 0 15.2 3.1 20.2 9.8l3.6-3.9m.2 35.2c-5.6 6.1-14.2 9.8-23.4 9.8-16.2 0-29.4-12.1-29.7-27.2H3.4v1.5c0 16.2 15.8 31 38.1 31 18.9 0 27.6-10.5 27.6-10.5l-4-4.6" fill="#fff"/><path d="M78.1 38.8c-.2-1.1-.6-2.2-1.2-3.1-.7-1-1.6-1.9-2.7-2.5-.5-.3-1-.5-1.5-.7-.8-.3-1.6-.4-2.4-.7-.4-.1-.6-.5-.5-.9.1-.4.5-.6 1-.7.3 0 1.1-.1 1.6-.1 2.5-.1 4.4-.3 5.6-.3L75 24l-2.6-.2c-1.5-.2-3-.1-4.5.3-2.2.7-3.9 2.3-4.8 4.5-.4 1.1-.6 2.3-.5 3.5.1 1.3.5 2.6 1.3 3.7.7 1 1.6 1.8 2.6 2.5.5.3 1.1.6 1.6.8.5.2 1.1.3 1.6.5.3.1 1.2.4 1.2.9 0 .6-.6.7-1 .8h.1l-5.7.3c-.5.1-1 .1-1.5.1l3 5.9c1 .1 1.9.1 2.5.1 1.5.2 2.9.1 4.4-.3 1.1-.3 2.1-.9 2.9-1.7.4-.4.8-.8 1.1-1.3.3-.5.6-1 .8-1.5.5-1.1.7-2.4.6-3.6.1-.2.1-.4 0-.5m-19.4-8.4l-2.1.9 1-2-2.3-2.7-2.3 2.7 1 2-2-.9-1.9 2.2 1.4 1.9 1.7-.5v1.1h1.3l-.2 1.5h2l-.2-1.5h1.3V34l1.8.5 1.4-1.9-1.9-2.2M35.3 24l-1.2 2.3.8.2v2.1l1.2.3v-2.6l-.6-.1.9-1.9-1.1-.3m3.3 2.7l.7-2-1.2-.1-.8 2.4.8.1.3 2.1 1.2.1-.3-2.6h-.7zm-6.1-3.8l-1.4 2.2.7.3-.3 2.1 1.1.4.3-2.6-.5-.2 1.2-1.8-1.1-.4zm-4-2l-1-.7-1.9 1.8.7.4-.7 2 1 .7.9-2.4-.5-.3 1.5-1.5zm1.4.8l-1.7 2 .6.3-.5 2.1 1.1.5.6-2.5-.5-.2 1.4-1.6-1-.6zm15.4 4.8l.1-2-1.2.2-.2 2.6.8-.1.8 1.9 1.2-.2-1-2.4h-.5zm-3.4.3l.4-2h-1.2l-.5 2.5h.8l.5 2h1.2l-.7-2.5h-.5zm15.5-5.3l-.4.3-.9-1.9-.9.7 1.1 2.4.5-.4 1.7 1.3.9-.7-2-1.7zm-3 1.9l-.7-2.1-1 .6.8 2.5.6-.4 1.5 1.5 1-.6-1.8-1.9-.4.4zm-6 2.4l-.1-2.1-1.1.3.2 2.6.8-.2 1 1.8 1.1-.3-1.3-2.3-.6.2zm3.1-1.1l-.4-2.1-1.1.6.5 2.5.7-.3 1.3 1.7 1.1-.5-1.6-2.1-.5.2z" fill="#fff"/><path d="M28.2 49.7l-1.7-1.3-.9.8 2.1 1.6.3-.3 1 1.9.9-.8-1.2-2.3-.5.4m2.7-1.7l-1.6-1.5-1 .6 1.9 1.8.4-.3.7 2 1-.7-.9-2.4-.5.5zm2.9-1.4L32.4 45l-1.1.5 1.7 2 .5-.2.5 2 1.1-.5-.6-2.5-.7.3zm3-1.2l-1.1-1.8-1.1.4 1.4 2.2.5-.2.2 2.1 1.1-.4-.2-2.6-.8.3zm2.3-2.6L38 43l1.1 2.4.5-.1-.1 2 1.2-.2.1-2.6-.8.1-.9-1.8zm3.8-.5l-1.2.1.7 2.5h.6l-.4 2 1.2-.1.4-2.6-.8.1-.5-2zm3.6 0l-1.2-.1.4 2.6h.6l-.6 2 1.2.1.8-2.5-.8-.1-.4-2zm3.4.6l-1.2-.2.1 2.6.6.1-.9 1.9 1.2.2 1.1-2.4-.8-.2-.1-2zm3.4.9l-1.1-.4-.3 2.6.5.2-1 1.8 1.1.4 1.4-2.2-.7-.2.1-2.2zm2.8 3.4l.4-2.1-1.1-.5-.5 2.5.5.2-1.3 1.7 1.1.5 1.6-2-.7-.3zm2.7 1.5l.7-2-1-.6-.8 2.5.5.3-1.5 1.5 1 .6 1.8-1.8-.7-.5zm15.7-8.9c0-5.3-8.4-2.9-8.4-8.7v-.4h-3.4V32c.1 1.3.5 2.6 1.3 3.7.7 1 1.6 1.8 2.6 2.5.5.3 1.1.6 1.6.8.5.2 1.1.3 1.6.5.3.1 1 .4 1.1.7h3.6v-.4m-8.4-9.1h3.8c.1-.4.5-.5.9-.6.3 0 1.1-.1 1.6-.1 2.5-.1 4.4-.3 5.6-.3l-1.5-3h-5.3c-2.3.1-4.9 1.3-5.1 4" fill="#fff"/><path d="M68.4 47.6c1.5.2 2.9.1 4.4-.3 1.1-.3 2.1-.9 2.9-1.7.4-.4.8-.8 1.1-1.3.3-.5.6-1 .8-1.5.4-.9.6-1.8.6-2.7h-3.8c-.2 3.1-2.8 4.3-5.4 4.3h-4.7l1.5 3c1 .2 1.9.2 2.6.2M70 67.1l-.6-1.5h-.7v2.3h.4v-1.8l.7 1.8h.4l.6-1.8h.1v1.8h.4v-2.3h-.8l-.5 1.5M66.4 66h.7v1.9h.5V66h.6v-.4h-1.8v.4" fill="#fff"/></g></mask><rect x="0" y="0" width="83.4" height="72" fill="#fff" mask="url(#ink-435)"/></svg>