<svg xmlns="http://www.w3.org/2000/svg" viewBox="0 0 49.262 54"><mask id="ink-494" maskUnits="userSpaceOnUse" x="0" y="0" width="49.262" height="54"><g fill="#fff"><path d="m35.502 39.751c1.126 1.588 1.86 3.325 1.799 5.084-5.497.799-12.387-1.481-16.731-5.406-4.116-1.573-6.567-4.198-7.274-7.287.09-1.972.691-3.357 1.129-4.121-.184-.402-.335-.812-.44-1.232-2.126.242-3.416 2.512-3.459 2.562-1.992-2.422-4.043-9.29 3.132-19.109 6.988-1.619 16.669-1.67 19.757.617-.048.02-2.884.767-3.18 2.391 1.268.149 2.567.602 3.804 1.277 4.459.074 9.002 1.143 12.59 3.409l2.258-15.61c-8.75-3.357-21.678-3.024-30.642.635-12.787 5.361-18.906 14.175-18.189 26.18.578 12.237 10.72 19.914 19.24 22.775 4.287 1.394 8.748 2.084 13.03 2.084 5.389 0 11.004-1.177 15.203-3.57l1.733-16.133c-4.547 3.615-9.477 5.041-13.76 5.454z" fill="#fff"/><path d="m39.86 37.184s2.567-4.823 5.556-12.707c-1.628-1.526-3.529-2.827-5.719-4.22-1.906-3.688-5.818-6.578-9.462-7.007.297-1.624 3.132-2.371 3.18-2.391-3.088-2.286-12.769-2.236-19.757-.617-7.175 9.819-5.124 16.687-3.132 19.109.043-.051 1.333-2.32 3.459-2.562.105.42.256.83.44 1.232-.439.764-1.039 2.15-1.129 4.121.707 3.089 3.159 5.714 7.274 7.287 4.344 3.925 11.234 6.205 16.731 5.406.134-3.844-3.513-7.598-6.809-9.87.397-.081.789-.178 1.172-.298 3.976 1.363 8.196 2.517 8.196 2.517z"/><g fill="#fff"><path d="m32.956 39.141s.64 1.136.581 1.959c0 0-7.156-1.13-9.793-4.697 4.81 1.911 7.722 2.447 7.722 2.447-1.001-2.394-3.688-3.558-3.688-3.558-4.414-.046-9.54-2.098-12.375-5.654 0 0-.574.857-.547 2.439 0 0 .4 2.544 4.475 5.139 0 0-.623-1.545-.292-3.016 2.503 5.685 10.324 9.28 16.387 9.157 0 .011-.154-1.935-2.47-4.216z"/><path d="m22.095 28.146c-1.671-.214-2.924-1.656-2.846-3.385.083-1.841 1.638-3.291 3.472-3.239.411.012.796.107 1.154.255 6.676 1.124 13.712 2.012 18.386 2.196 0 0-1.691-1.245-3.725-2.201 0 0-3.518-.564-10.625-.71-1.16-1.584-1.415-4.064-1.415-4.064 4.69 1.741 10.808 2.664 10.808 2.664-3.62-5.304-9.459-4.93-9.459-4.93s-.536-2.245 1.758-3.542c-.006-.003-2.678-.669-6.586-.339-.377.831-.058 2.698.625 3.735 0 0-1.702-.06-2.929.66-1.128-1.05-.714-3.167.078-4.199 0 0-3.08.27-5.93.913-1.872 2.975-2.64 5.189-2.64 5.189 1.312-.391 3.414-.315 4.435 1.139 0 0-1.189 1.498-1.39 2.547-1.058-.919-2.211-1.5-3.87-1.535 0 0-1.704 4.091-.376 6.966 1.594-1.982 4.202-1.465 4.202-1.465 1.185 6.557 9.655 9.312 13.78 8.758 0 0-3.446-1.202-5.322-2.309-.002-.001-.794-1.18-1.585-3.104z"/><path d="m24.953 23.375-.386 1.253c-.159-1.861-3.093-2.617-3.975-.361.945-1.148 3.136-.658 2.98.816-.137 1.293-1.971 1.624-2.987.458.12.878 1.13 1.473 2.021 1.417.451-.028 1.06-.256 1.486-.787l-.419 1.359c.576 1.795 1.107 2.378 1.107 2.378s.908.289 5.683.568c-1.503.691-3.124.804-3.124.804 3.386 1.353 8.673 3.121 11.65 4.014 1.661-3.478 4.191-9.708 4.191-9.708-4.405-.076-12.203-1.209-18.227-2.211zm3.317 5.739c-.796.352-3.087.551-3.431-1.73 0 0 .691-1.392.912-2.667 1.618.341 3.43.762 3.43.762-.82.637-2.53.433-2.53.433s-.299.932-.655 1.588c.001 0 .131 1.062 2.274 1.614zm3.449 2.158c.573-1.489 1.327-3.765 1.768-5.047.522.086 1.054.169 1.585.25-.423 1.264-1.329 3.981-1.923 5.273-.448-.149-.924-.307-1.43-.476zm2.529.841c.703-1.711 1.439-3.806 1.965-5.469.558.08 1.107.156 1.634.226-.63 1.884-1.382 3.824-2.175 5.713-.43-.142-.904-.298-1.424-.47zm3.874 1.269c-.37-.119-.821-.266-1.367-.444.83-1.961 1.771-4.398 2.258-5.92.611.074 1.173.137 1.661.184-.153.415-1.3 3.492-2.552 6.18z"/><path d="m21.912 25.431c-.31-.009-.551-.265-.537-.572.012-.27.217-.49.478-.533-.037-.008-.075-.013-.114-.014-.352-.01-.65.264-.666.612s.257.639.609.649c.186.005.357-.07.479-.193-.075.035-.16.053-.249.051z"/></g><path d="m36.445 41.301c.57 1.141.897 2.333.855 3.534-5.497.799-12.387-1.481-16.731-5.406-4.116-1.573-6.567-4.198-7.274-7.287.09-1.972.691-3.357 1.129-4.121-.184-.402-.335-.812-.44-1.232-2.126.242-3.416 2.512-3.459 2.562-1.992-2.422-4.043-9.29 3.132-19.109 6.988-1.619 16.669-1.67 19.757.617-.047.02-2.717.728-3.142 2.257 5.325-.572 10.971.229 15.157 2.386.546-4.037 1.124-8.123 1.718-12.158-3.119-1.153-7.477-1.827-12.185-1.827-5.349 0-11.153.87-16.113 2.895-12.102 5.073-17.898 13.368-17.223 24.651.541 11.448 10.121 18.66 18.16 21.359 9.09 2.958 19.38 2.566 26.271-.993l1.278-11.901c-3.546 2.311-7.358 3.376-10.89 3.773z" fill="#fff"/><path d="m48.263 53.417h-.009l-.388-1.1h-.595v1.683h.341v-1.34h.009l.472 1.34h.332l.487-1.34h.008v1.34h.342v-1.683h-.589z" fill="#fff"/><path d="m45.603 52.616h.507v1.384h.344v-1.384h.507v-.299h-1.358z" fill="#fff"/></g></mask><rect x="0" y="0" width="49.262" height="54" fill="#fff" mask="url(#ink-494)"/></svg>