<?xml version="1.0" encoding="utf-8"?>
<!-- Generator: Adobe Illustrator 26.3.1, SVG Export Plug-In . SVG Version: 6.00 Build 0)  -->
<svg version="1.1" id="Layer_2_00000005947935804886746330000011080029988015711397_"
	 xmlns="http://www.w3.org/2000/svg" xmlns:xlink="http://www.w3.org/1999/xlink" x="0px" y="0px" viewBox="0 0 308.2 72.8"
	 style="enable-background:new 0 0 308.2 72.8;" xml:space="preserve">
<style type="text/css">
	.st0{fill:#C4CED4;}
	.st1{fill:#5D676F;}
	.st2{fill:#E20074;}
</style>
<g id="Artwork">
	<g>
		<g>
			<g>
				<g>
					<polygon class="st0" points="222.7,40.9 222.7,51.3 228.9,51.2 228.9,53.1 228.9,55.6 231.1,57.6 230.9,49.2 224.7,49.3 
						224.7,42.8 					"/>
					<polygon class="st0" points="222.7,66.1 231.1,66 231.1,67.9 231.1,70.7 233.2,72.6 233.2,64 224.7,64.1 224.7,57.7 
						222.8,55.7 					"/>
					<path class="st0" d="M216.3,42.1v-1.8c0-0.8-0.1-1.5-0.4-2.2c-0.3-0.7-0.7-1.3-1.2-1.8l16.5-0.1v4.6l2,2h0l0-8.6l-23,0.2
						c0,0,4.3,2.7,4.3,5.9v32.5l1.9-2L216.3,42.1L216.3,42.1z"/>
					<polygon class="st1" points="222.7,40.9 224.7,42.8 233.2,42.8 233.1,42.7 231.1,40.8 					"/>
					<polygon class="st1" points="222.7,66.1 222.7,66.1 222.8,55.7 					"/>
					<polygon class="st1" points="222.8,55.7 224.7,57.7 231.1,57.6 230.9,57.5 228.9,55.6 					"/>
					<polygon class="st1" points="216.3,70.8 214.4,72.8 233.2,72.6 231.1,70.7 					"/>
					<path class="st2" d="M222.7,66.1l8.4-0.1v4.6l-14.8,0.1V40.2c0-0.8-0.1-1.5-0.4-2.2c-0.3-0.7-0.7-1.3-1.2-1.8l16.5-0.1v4.6
						l-8.4,0v10.4l6.2,0v4.4l-6.1,0L222.7,66.1L222.7,66.1z"/>
					<polygon class="st0" points="243.9,70.6 246,72.6 246,57.5 243.9,55.6 					"/>
					<path class="st0" d="M257.2,53.2c0,0,0-0.1,0.1-0.1c0.6-0.9,0.9-1.9,0.9-3l0-9c0-1-0.2-1.9-0.6-2.8c-0.4-0.9-0.9-1.6-1.5-2.3
						s-1.4-1.2-2.3-1.5c-0.9-0.4-1.8-0.5-2.8-0.5l-19.1,0.1l0,0c0,0,3.7,3,3.7,6v32.5l1.9-2V40.2c0-0.8-0.1-1.5-0.4-2.2
						c-0.3-0.7-0.7-1.3-1.2-1.8l15-0.1c0.7,0,1.4,0.1,2,0.4s1.2,0.6,1.6,1.1c0.5,0.5,0.9,1,1.1,1.7c0.3,0.6,0.4,1.3,0.4,2l0,9
						c0,0.7-0.2,1.3-0.6,1.9c-0.4,0.6-0.9,1-1.4,1.3c0.6,0.2,1,0.7,1.4,1.2s0.6,1.2,0.6,1.9v14.2l2,1.9V56.4c0-1.1-0.3-2.1-0.9-3
						C257.2,53.3,257.2,53.3,257.2,53.2"/>
					<path class="st0" d="M249.7,58.8v-1.8c0-0.3-0.1-0.6-0.3-0.9l-1.6,1.4v15l1.9-1.9V58.8L249.7,58.8z"/>
					<path class="st0" d="M247.8,49.1H246v-6.4l-2.1-2v10.4l4.3,0c0.4,0,0.8-0.2,1-0.4c0.3-0.3,0.4-0.6,0.4-1v-7.6
						c0-0.3-0.1-0.5-0.2-0.8l-1.7,1.3L247.8,49.1L247.8,49.1z"/>
					<path class="st1" d="M249.2,55.9c-0.3-0.3-0.6-0.4-1-0.4l-4.3,0l2.1,2h1.8l1.6-1.5C249.3,56,249.3,56,249.2,55.9"/>
					<polygon class="st1" points="237.5,70.7 235.6,72.6 246,72.6 243.9,70.6 					"/>
					<polygon class="st1" points="249.7,70.6 247.8,72.5 249.7,72.5 251.7,72.5 254.2,72.5 256.2,72.4 258.2,72.4 256.1,70.5 					
						"/>
					<path class="st1" d="M248.2,40.7l-4.3,0l2.1,2h1.8l1.7-1.3c-0.1-0.1-0.1-0.2-0.2-0.3C249,40.8,248.6,40.7,248.2,40.7"/>
					<path class="st2" d="M243.9,55.6l4.3,0c0.4,0,0.8,0.1,1,0.4c0,0,0.1,0.1,0.1,0.1c0.2,0.2,0.3,0.5,0.3,0.9v13.6l6.4,0V56.4
						c0-0.7-0.2-1.3-0.6-1.9s-0.9-1-1.4-1.2c0.6-0.3,1-0.7,1.4-1.3c0.4-0.5,0.6-1.2,0.6-1.9l0-9c0-0.7-0.1-1.4-0.4-2
						c-0.3-0.6-0.6-1.2-1.1-1.7s-1-0.8-1.7-1.1c-0.6-0.3-1.3-0.4-2-0.4l-15,0.1c0.5,0.5,0.9,1.1,1.2,1.8c0.3,0.7,0.4,1.4,0.4,2.2
						v30.5l6.4,0L243.9,55.6L243.9,55.6z M249.6,42.1v7.6c0,0.4-0.1,0.7-0.4,1c-0.3,0.3-0.6,0.4-1,0.4l-4.3,0V40.7l4.3,0
						c0.4,0,0.8,0.1,1,0.4c0.1,0.1,0.1,0.2,0.2,0.3C249.6,41.6,249.7,41.8,249.6,42.1"/>
					<path class="st0" d="M273,63.8h-1.8v-6.5l-2.1-2v10.4l4.3,0c0.4,0,0.8-0.1,1-0.4c0.3-0.3,0.4-0.6,0.4-1v-7.6
						c0-0.4-0.1-0.7-0.4-1c0,0,0,0-0.1,0l-1.4,1.6L273,63.8L273,63.8z"/>
					<path class="st0" d="M283.3,50v-9c0-0.2,0-1.5-0.1-1.8c-0.2-0.4-0.5-1.1-0.9-1.5c-0.5-0.6-4.7-3.8-4.7-3.8L257.1,34
						c0,0,3.7,2.3,3.7,6v32.5h0l1.9-2V40c0-0.8-0.1-1.5-0.4-2.2c-0.3-0.7-0.7-1.3-1.2-1.8l15-0.1c0.7,0,1.4,0.1,2,0.4
						c0.6,0.3,1.2,0.6,1.7,1.1c0.5,0.5,0.9,1,1.1,1.7c0.3,0.6,0.4,1.3,0.4,2v9c0,0.7-0.2,1.3-0.6,1.9c-0.4,0.5-0.8,1-1.4,1.3
						c0.6,0.2,1,0.7,1.4,1.2c0.4,0.5,0.6,1.2,0.6,1.9v9c0,0.7-0.1,1.3-0.4,2c-0.3,0.6-0.7,1.2-1.1,1.7c0,0,0,0,0,0l1.5,1.3
						c0.6-0.7,1.1-1.4,1.5-2.2c0.4-0.9,0.6-1.8,0.6-2.8v-9c0-1.1-0.3-2.1-0.9-3c0,0-0.1-0.1-0.1-0.1c0,0,0-0.1,0.1-0.1
						C283,52.1,283.3,51.1,283.3,50"/>
					<path class="st0" d="M273,49h-1.8v-6.4l-2.1-2V51l4.3,0c0.4,0,0.8-0.2,1-0.4c0.3-0.3,0.4-0.6,0.4-1V42c0-0.3-0.1-0.6-0.3-0.9
						l-1.6,1.5L273,49L273,49z"/>
					<path class="st1" d="M273.4,40.5l-4.3,0l2.1,2h1.8l1.6-1.5c0,0,0-0.1-0.1-0.1C274.2,40.7,273.8,40.5,273.4,40.5"/>
					<path class="st1" d="M278,70c-0.6,0.3-1.3,0.4-2,0.4l-13.3,0.1l-1.9,2l0,0l15.2-0.1c1.2,0,2.2-0.3,2.8-0.6s1.7-0.8,2.3-1.6
						l-1.5-1.3C279.2,69.4,278.6,69.7,278,70"/>
					<path class="st1" d="M269.1,55.4l2.1,2h1.8l1.4-1.6c-0.3-0.2-0.6-0.4-1-0.4L269.1,55.4L269.1,55.4z"/>
					<path class="st2" d="M278,70c0.6-0.3,1.2-0.6,1.6-1.1c0,0,0,0,0,0c0.5-0.5,0.9-1,1.1-1.6s0.4-1.3,0.4-2v-9
						c0-0.7-0.2-1.3-0.6-1.9c-0.4-0.5-0.8-1-1.4-1.2c0.6-0.3,1-0.7,1.4-1.3c0.4-0.5,0.6-1.2,0.6-1.9v-9c0-0.7-0.1-1.4-0.4-2
						c-0.3-0.6-0.7-1.2-1.1-1.7c-0.5-0.5-1-0.8-1.7-1.1c-0.6-0.3-1.3-0.4-2-0.4L261,36c0.5,0.5,1,1.1,1.2,1.8
						c0.3,0.7,0.4,1.4,0.4,2.2v30.5l13.3-0.1C276.7,70.4,277.4,70.3,278,70 M274.4,55.8c0.3,0.3,0.4,0.6,0.4,1v7.6
						c0,0.4-0.1,0.8-0.4,1c-0.3,0.3-0.6,0.4-1,0.4l-4.3,0V55.4l4.3,0C273.8,55.4,274.1,55.5,274.4,55.8
						C274.4,55.8,274.4,55.8,274.4,55.8 M274.8,42v7.6c0,0.4-0.1,0.7-0.4,1c-0.3,0.3-0.6,0.4-1,0.4l-4.3,0V40.6l4.3,0
						c0.4,0,0.8,0.1,1,0.4c0,0,0,0.1,0.1,0.1C274.7,41.3,274.8,41.6,274.8,42"/>
					<path class="st0" d="M294,33.8c0,0,1.7,1.6,1.7,3.8l0,0c0,0.4-0.1,0.8-0.4,1.5l-0.6,1.5l-2.7-6.8l-14.4,0.1
						c0,0,5.3,3.9,6.3,6.3c0,0.1,0.1,0.2,0.2,0.3l5.5,13.7v18h0l1.8-2l0.1-0.5V53.9l-5.6-14.1c-0.4-0.8-0.8-1.5-1.4-2.2
						c-0.6-0.7-1.2-1.3-2-1.8l8.1,0l4.1,10.3l2.4-6.4c0.4-0.8,0.5-1.5,0.5-2.2c0-0.7-0.2-1.3-0.5-1.8l8.1,0L297.9,54v16.3h-0.1v0
						l2,1.9h0.1V54.3l8.2-20.6L294,33.8L294,33.8z"/>
					<polygon class="st1" points="297.9,70.3 291.5,70.3 291.5,69.8 291.5,70.3 289.6,72.3 289.6,72.3 299.9,72.3 299.9,72.2 
						297.9,70.3 					"/>
					<path class="st2" d="M297.9,70.3L297.9,70.3l0.1-16.3l7.3-18.3l-8.1,0c0.3,0.5,0.5,1.2,0.5,1.8c0,0.7-0.1,1.4-0.5,2.2l-2.4,6.4
						l-4.1-10.3l-8.1,0c0.7,0.5,1.4,1.1,2,1.8c0.6,0.7,1,1.4,1.4,2.2l5.6,14.1v16.4L297.9,70.3L297.9,70.3z"/>
					<g>
						<path class="st0" d="M211.8,34.9c-0.1-0.6-0.2-1.2-0.5-1.8c-0.4-0.9-0.9-1.6-1.5-2.3c-0.6-0.6-1.4-1.2-2.3-1.5
							c-0.9-0.4-1.8-0.5-2.8-0.5l-19.2,0.1c0,0,3.7,3.2,3.7,6v37.9h0l1.9-1.8V35c0-0.8-0.1-1.5-0.4-2.2s-0.7-1.3-1.2-1.8l15.2-0.1
							c0.7,0,1.4,0.1,2,0.4c0.6,0.3,1.2,0.6,1.7,1.1s0.8,1,1.1,1.7s0.4,1.3,0.4,2v29.6c0,0.7-0.1,1.3-0.4,2c-0.2,0.6-0.6,1-1,1.5
							l1.4,1.4c0.6-0.7,1.1-1.4,1.5-2.3c0.4-0.9,0.6-1.8,0.6-2.8V35.9C211.9,35.5,211.8,35.2,211.8,34.9"/>
						<path class="st0" d="M203.5,37c0-0.4-0.1-0.7-0.3-0.9l-1.6,1.3v26.7h-1.9V37.4l-2.1-1.8v30.6l4.4,0c0.4,0,0.8-0.1,1-0.4
							c0.3-0.3,0.4-0.6,0.4-1V37L203.5,37z"/>
						<path class="st0" d="M206.3,72.5c-0.1,0-0.1,0-0.2,0C206.2,72.5,206.2,72.5,206.3,72.5"/>
						<path class="st0" d="M207.5,72.1C207.5,72.1,207.6,72,207.5,72.1c0,0,0,0-0.1,0C207.5,72.1,207.5,72.1,207.5,72.1"/>
						<path class="st1" d="M201.6,37.4l1.6-1.3c0,0,0-0.1-0.1-0.1c-0.3-0.3-0.6-0.4-1-0.4l-4.4,0l2.1,1.8L201.6,37.4L201.6,37.4z"/>
						<path class="st1" d="M208.3,69.3c-0.5,0.5-1,0.8-1.7,1.1c-0.6,0.3-1.3,0.4-2,0.4l-13.5,0.1l-1.9,1.8l0,0l15.4-0.1
							c0.5,0,1-0.1,1.4-0.2c0.1,0,0.1,0,0.2,0c0.3-0.1,0.5-0.1,0.7-0.2c0.1-0.1,0.3-0.1,0.4-0.2l0.2-0.1c0.4-0.2,0.8-0.4,1.1-0.6
							c0,0,0,0,0,0c0.1,0,0.1-0.1,0.2-0.1c0.5-0.4,0.9-0.8,0.9-0.8l-1.4-1.4C208.4,69.2,208.4,69.3,208.3,69.3"/>
						<path class="st2" d="M206.7,70.4c0.6-0.3,1.2-0.7,1.7-1.1c0.1-0.1,0.1-0.1,0.1-0.2c0.4-0.4,0.7-0.9,1-1.5
							c0.3-0.6,0.4-1.3,0.4-2V36c0-0.7-0.1-1.4-0.4-2c-0.3-0.6-0.6-1.2-1.1-1.7s-1-0.8-1.7-1.1c-0.6-0.3-1.3-0.4-2-0.4L189.5,31
							c0.5,0.5,0.9,1.1,1.2,1.8c0.3,0.7,0.4,1.4,0.4,2.2v35.9l13.5-0.1C205.4,70.8,206,70.7,206.7,70.4 M203.1,65.8
							c-0.3,0.3-0.6,0.4-1,0.4l-4.4,0V35.6l4.4,0c0.4,0,0.8,0.1,1,0.4c0,0,0,0.1,0.1,0.1c0.2,0.2,0.3,0.5,0.3,0.9v27.8
							C203.5,65.2,203.3,65.5,203.1,65.8"/>
					</g>
				</g>
				<g>
					<path class="st0" d="M138.6,71.5c-0.1,0-0.2-0.1-0.4-0.1C138.4,71.4,138.5,71.5,138.6,71.5"/>
					<path class="st0" d="M136.9,70.8c0,0,0.1,0,0.1,0.1c-0.1-0.1-0.2-0.1-0.4-0.2C136.7,70.7,136.8,70.8,136.9,70.8"/>
					<path class="st0" d="M135.6,70.1c-0.1-0.1-0.2-0.1-0.3-0.2C135.4,70,135.5,70,135.6,70.1"/>
					<path class="st0" d="M146.2,72.2c0,0-0.1,0-0.1,0C146.1,72.2,146.1,72.2,146.2,72.2"/>
					<path class="st0" d="M153.4,69.8C153.4,69.8,153.4,69.8,153.4,69.8C153.3,69.9,153.4,69.8,153.4,69.8"/>
					<path class="st0" d="M140.3,71.9C140.3,71.9,140.3,71.9,140.3,71.9c0,0-0.1,0-0.2,0C140.1,71.9,140.2,71.9,140.3,71.9"/>
					<path class="st0" d="M150.7,71.2c-0.2,0.1-0.5,0.2-0.8,0.3C150.2,71.4,150.5,71.3,150.7,71.2"/>
					<path class="st0" d="M145.4,63.5h-2V33.9L129.4,34c0.3,0.5,0.9,2.2,0.9,2.2s2,1.2,2.4,2.1c0.2,0.4,0.3,0.9,0.3,1.4v26.2
						c0,1.1,0.4,2.2,1.2,3.1c0.3,0.3,0.6,0.7,1,0.9l1.1-1.4l0,0c-0.3-0.2-0.6-0.5-0.8-0.7c-0.5-0.6-0.7-1.1-0.7-1.8V39.8
						c0-0.8-0.1-1.5-0.4-2.2s-0.7-1.3-1.2-1.8l8.1,0v29.9l6,0V35.7l6.4,0v30.2c0,0.6-0.2,1.2-0.7,1.8c-0.2,0.3-0.5,0.5-0.8,0.8
						l1.4,1.3c0.4-0.3,0.7-0.6,1-0.9c0.8-0.9,1.2-2,1.2-3.1V33.8l-10.3,0.1L145.4,63.5L145.4,63.5z"/>
					<path class="st1" d="M151,69.1c-0.8,0.4-1.8,0.8-2.9,1c-1.1,0.2-2.3,0.4-3.6,0.4c-1.3,0-2.8-0.1-3.9-0.3s-2.1-0.6-2.9-0.9
						c-0.5-0.2-0.9-0.5-1.2-0.7l0,0l-1.1,1.4l0,0c0,0,0.1,0,0.1,0.1c0.1,0,0.1,0.1,0.3,0.2c0.2,0.2,0.6,0.4,1,0.6
						c0.1,0.1,0.2,0.1,0.4,0.2c0.1,0,0.1,0.1,0.1,0.1c0.3,0.2,0.7,0.3,1.2,0.4c0.1,0,0.2,0.1,0.4,0.1c0.5,0.2,1,0.3,1.4,0.4
						c0.1,0,0.2,0,0.3,0.1l0.1,0c1.1,0.2,2.7,0.4,4,0.4c0.6,0,1.4-0.1,2.1-0.1c0.1,0,0.1,0,0.1,0c0.7-0.1,1.3-0.2,1.8-0.3
						c0.4-0.1,0.9-0.2,1.4-0.4c0.3-0.1,0.5-0.2,0.8-0.3c0.5-0.2,0.9-0.3,1.2-0.5c0.6-0.3,1.1-0.7,1.4-0.8c0,0,0.1,0,0.1-0.1
						c0,0,0.1-0.1,0.1-0.1l0,0l-1.4-1.3C151.8,68.7,151.4,68.9,151,69.1"/>
					<path class="st2" d="M140.6,70.2c1.1,0.2,2.6,0.3,3.9,0.3c1.3,0,2.5-0.1,3.6-0.4c1.1-0.2,2.1-0.6,2.9-1
						c0.4-0.2,0.8-0.4,1.1-0.7c0.3-0.2,0.6-0.5,0.8-0.8c0.5-0.6,0.7-1.2,0.7-1.8V35.7l-6.4,0v29.9l-6,0V35.7l-8.1,0
						c0.5,0.5,0.9,1.1,1.2,1.8c0.3,0.7,0.4,1.4,0.4,2.2V66c0,0.6,0.2,1.2,0.7,1.8c0.2,0.2,0.5,0.5,0.8,0.7c0.4,0.3,0.8,0.5,1.2,0.7
						C138.5,69.6,139.5,69.9,140.6,70.2"/>
					<path class="st0" d="M182.4,33.6l-10.3,0.1v6.5l-3.5-6.5l-14.7,0.1l1,1.8c0,0,2.6,1.6,3.2,2.8c0.2,0.4,0.3,0.9,0.3,1.4v32.4h0
						l1.9-1.8V39.9c0-0.8-0.1-1.5-0.4-2.2s-0.7-1.3-1.2-1.8l8.7-0.1l6.7,13V35.8l6.4,0v34.5l2,1.8h0L182.4,33.6L182.4,33.6z"/>
					<polygon class="st0" points="173.9,62.6 166.6,48.4 166.6,70.3 168.7,72.2 168.7,72.2 168.7,56.7 172.1,62.9 172.1,72.1 
						172.1,72.1 173.9,70.3 					"/>
					<polygon class="st1" points="173.9,70.3 172.1,72.1 172.1,72.2 182.4,72.1 182.4,72.1 180.3,70.3 					"/>
					<polygon class="st1" points="160.2,70.4 158.4,72.2 158.4,72.2 168.7,72.2 168.7,72.2 166.6,70.3 					"/>
					<path class="st2" d="M166.6,48.4l7.3,14.2v7.7l6.4,0V35.8l-6.4,0v13.1l-6.7-13l-8.7,0.1c0.5,0.5,0.9,1.1,1.2,1.8
						s0.4,1.4,0.4,2.2v30.5l6.4,0L166.6,48.4L166.6,48.4z"/>
					<path class="st0" d="M129.4,50.9c0,0,0.1-0.1,0.1-0.1c0.6-0.9,0.9-1.9,0.9-3l0-10.1v-1.6c0-0.8-0.2-1.7-0.5-2.4
						c0-0.1-0.1-0.2-0.1-0.3c-0.4-0.9-0.9-1.6-1.5-2.3c-0.7-0.6-1.4-1.1-2.3-1.5c-0.9-0.4-1.8-0.5-2.8-0.5l-19.9,0.1l3.4,3.3
						c0.4,0.3,0.6,0.7,0.8,1.2c0.2,0.4,0.3,0.9,0.3,1.4v37.4h0l1.8-1.8V35.2c0-0.8-0.1-1.5-0.4-2.2c-0.3-0.7-0.7-1.3-1.2-1.8
						l15.2-0.1c0.7,0,1.4,0.1,2,0.4c0.6,0.3,1.2,0.6,1.7,1.1c0.5,0.5,0.8,1,1.1,1.7c0.3,0.6,0.4,1.3,0.4,2l0,6.1l0,3.9c0,0,0,0,0,0
						V48c0,0.7-0.2,1.3-0.6,1.9c-0.4,0.5-0.8,1-1.4,1.3c0.6,0.2,1,0.7,1.4,1.2c0.4,0.5,0.6,1.2,0.6,1.9v16.4l2.1,1.8l0,0V54
						C130.4,52.9,130.1,51.9,129.4,50.9C129.5,51,129.5,50.9,129.4,50.9"/>
					<polygon class="st0" points="116,70.7 118.1,72.5 118.1,72.5 118.1,55.2 116,53.4 					"/>
					<path class="st0" d="M121.9,54.8c0-0.3-0.1-0.6-0.3-0.8l-1.6,1.2v17.3h0l1.9-1.9V54.8L121.9,54.8z"/>
					<path class="st0" d="M121.6,37.2c0-0.3-0.1-0.6-0.3-0.8l-1.6,1.4h-0.1V47h-1.9v-9.2h0.1l-2.1-2V49l4.4,0c0.4,0,0.8-0.2,1-0.4
						c0.3-0.3,0.4-0.6,0.4-1V39C121.6,38.8,121.6,37.9,121.6,37.2"/>
					<path class="st1" d="M121.5,53.8c-0.3-0.3-0.6-0.4-1-0.4l-4.4,0l2.1,1.8l1.9,0l1.6-1.2C121.6,53.9,121.6,53.8,121.5,53.8"/>
					<polygon class="st1" points="128.4,70.6 121.9,70.6 121.9,70.6 120,72.5 120,72.5 130.4,72.4 130.4,72.4 128.4,70.6 					"/>
					<path class="st1" d="M128.4,46.3l0-3.9L128.4,46.3C128.4,46.3,128.4,46.3,128.4,46.3"/>
					<polygon class="st1" points="109.6,70.7 107.8,72.5 107.8,72.6 118.1,72.5 118.1,72.5 116,70.7 					"/>
					<path class="st1" d="M119.6,37.8h0.1l1.6-1.4c-0.1-0.1-0.1-0.1-0.1-0.2c-0.3-0.3-0.6-0.4-1-0.4l-4.4,0l2.1,2L119.6,37.8
						L119.6,37.8z"/>
					<path class="st1" d="M121.6,37.2C121.6,37.2,121.6,37.2,121.6,37.2c0,0.7,0,1.6,0,1.8V37.2z"/>
					<path class="st2" d="M116,53.4l4.4,0c0.4,0,0.8,0.1,1,0.4c0.1,0,0.1,0.1,0.1,0.2c0.2,0.2,0.3,0.5,0.3,0.8v15.9l0,0l6.4,0l0,0
						V54.2c0-0.7-0.2-1.3-0.6-1.9s-0.8-1-1.4-1.2c0.6-0.3,1-0.7,1.4-1.3c0.4-0.5,0.6-1.2,0.6-1.9v-1.7l0-4l0-6.1
						c0-0.7-0.1-1.4-0.4-2c-0.3-0.6-0.6-1.2-1.1-1.7c-0.5-0.5-1-0.8-1.7-1.1c-0.6-0.3-1.3-0.4-2-0.4L108,31.2
						c0.5,0.5,0.9,1.1,1.2,1.8c0.3,0.7,0.4,1.4,0.4,2.2v35.5l6.4,0L116,53.4L116,53.4z M121.2,48.5c-0.3,0.3-0.6,0.4-1,0.4l-4.4,0
						V35.8l4.4,0c0.4,0,0.8,0.1,1,0.4c0.1,0.1,0.1,0.1,0.1,0.2c0.2,0.2,0.3,0.5,0.3,0.8c0,0,0,0,0,0v10.3
						C121.6,47.9,121.5,48.2,121.2,48.5"/>
				</g>
				<g>
					<path class="st0" d="M46.2,71.2c-0.3,0.1-0.6,0.2-0.8,0.3C45.6,71.4,45.9,71.3,46.2,71.2"/>
					<path class="st0" d="M41.5,72.2c0,0-0.1,0-0.1,0C41.4,72.2,41.5,72.2,41.5,72.2"/>
					<path class="st0" d="M50.5,37.3c-0.6-1.1-2-2-2-2c-0.3-0.2-0.7-0.5-1.1-0.7c-1-0.5-2.1-0.9-3.4-1.2c-2.5-0.5-5.8-0.5-8.3,0
						c-1.3,0.3-2.4,0.7-3.4,1.2c-1,0.5-1.9,1.2-2.5,1.9c-0.8,0.9-1.2,2-1.2,3.1v26.2c0,1.1,0.4,2.2,1.2,3.1c0.3,0.4,0.7,0.7,1.2,1.1
						l1-1.5l0,0c-0.3-0.2-0.6-0.5-0.8-0.8c-0.5-0.6-0.7-1.1-0.7-1.8V39.8c0-0.6,0.2-1.2,0.7-1.8c0.5-0.5,1.1-1,2-1.5
						c0.8-0.4,1.8-0.8,2.9-1c1.1-0.2,2.3-0.4,3.6-0.4c1.3,0,2.7,0.1,3.9,0.3c1.1,0.2,2.1,0.5,2.9,1c0.8,0.4,1.5,0.9,2,1.5
						c0.5,0.5,0.7,1.1,0.7,1.8v26.2c0,0.6-0.2,1.2-0.7,1.8c-0.2,0.2-0.5,0.5-0.8,0.7l0,0l1.2,1.5c0.4-0.3,0.8-0.7,1.1-1
						c0.8-0.9,1.2-2,1.2-3.1V39.5C51.1,38.7,51.1,38.4,50.5,37.3"/>
					<polygon class="st0" points="40.8,41.9 40.8,63.4 38.8,63.5 38.8,41.9 36.8,40 36.8,65.6 42.7,65.5 42.7,40 					"/>
					<path class="st0" d="M34.3,71.6c-0.3-0.1-0.6-0.2-0.8-0.3C33.7,71.4,34,71.5,34.3,71.6"/>
					<polygon class="st1" points="40.8,41.9 42.7,40 36.8,40 38.8,41.9 					"/>
					<path class="st1" d="M47.6,68.3c-0.3,0.3-0.8,0.5-1.2,0.8c-0.8,0.4-1.8,0.8-2.9,1c-1.1,0.2-2.6,0.4-3.9,0.4
						c-1.3,0-2.5-0.1-3.6-0.3s-2.1-0.6-2.9-1c-0.4-0.2-0.8-0.5-1.1-0.7l0,0l-1,1.5l0,0c0,0,0.5,0.4,1.3,0.8c0.3,0.2,0.8,0.3,1.2,0.5
						c0.3,0.1,0.5,0.2,0.8,0.3c0.5,0.2,1,0.3,1.4,0.4c1.1,0.2,2.6,0.4,3.9,0.4c0.6,0,1.7-0.1,2.4-0.1c0,0,0.1,0,0.1,0
						c0.7-0.1,1.3-0.2,1.8-0.3c0.4-0.1,0.9-0.2,1.4-0.4c0.3-0.1,0.6-0.2,0.8-0.3c0.5-0.2,0.9-0.3,1.2-0.5c0.8-0.4,1.4-0.9,1.4-0.9
						L47.6,68.3L47.6,68.3L47.6,68.3z"/>
					<path class="st2" d="M36,70.2c1.1,0.2,2.3,0.3,3.6,0.3c1.3,0,2.7-0.1,3.9-0.4c1.1-0.2,2.1-0.6,2.9-1c0.5-0.2,0.8-0.5,1.2-0.8
						c0.3-0.2,0.5-0.4,0.8-0.7c0.5-0.6,0.7-1.2,0.7-1.8V39.7c0-0.6-0.2-1.2-0.7-1.8s-1.1-1-2-1.5c-0.8-0.4-1.8-0.8-2.9-1
						c-1.1-0.2-2.6-0.3-3.9-0.3c-1.3,0-2.5,0.1-3.6,0.4s-2.1,0.6-2.9,1c-0.8,0.4-1.5,0.9-2,1.5c-0.5,0.6-0.7,1.2-0.7,1.8V66
						c0,0.6,0.2,1.2,0.7,1.8c0.2,0.3,0.5,0.5,0.8,0.7c0.3,0.2,0.7,0.5,1.2,0.7C33.9,69.6,34.9,69.9,36,70.2 M36.8,65.6V40l5.9,0
						v25.5L36.8,65.6z"/>
					<polygon class="st0" points="73,49.2 69,59.4 70.4,61.2 70.4,61.2 71.1,59.5 71.1,72.1 71.1,72.1 73,70.3 					"/>
					<polygon class="st0" points="61.9,49.2 61.9,70.4 63.9,72.2 64,72.2 64,59.5 64.6,61.2 64.7,61.2 65.9,59.4 					"/>
					<path class="st0" d="M81.4,33.6l-9.2,0.1l-4.7,9.7l-4.7-9.6l-13.3,0.1c0,0,4.1,1.7,4.1,6.8v31.7h0l1.9-1.8V39.8
						c0-2.7-1.4-4-1.4-4l7.3,0l6,12.1l6-12.2l6,0v34.5l2,1.8h0L81.4,33.6L81.4,33.6z"/>
					<polygon class="st1" points="73,70.3 71.1,72.1 71.1,72.2 81.4,72.1 81.4,72 79.4,70.2 					"/>
					<polygon class="st1" points="65.9,59.4 64.7,61.2 64.6,61.2 70.4,61.2 70.4,61.2 69,59.4 					"/>
					<polygon class="st1" points="55.5,70.4 53.7,72.2 53.6,72.3 64,72.2 63.9,72.2 61.9,70.4 					"/>
					<path class="st2" d="M61.9,49.2l4,10.2l3.1,0l4-10.2v21.1l6.4,0V35.7l-6,0l-6,12.2l-6-12.1l-7.3,0c0,0,1.4,1.2,1.4,4v30.6
						l6.4,0L61.9,49.2L61.9,49.2z"/>
					<polygon class="st0" points="11.5,70.7 13.5,72.5 13.5,72.5 13.5,55.6 11.5,53.8 					"/>
					<polygon class="st0" points="17.6,53.7 15.7,55.6 15.7,72.5 15.8,72.5 17.6,70.6 					"/>
					<path class="st0" d="M26.1,29l-10.3,0.1v18.1h-2.2V29.1L0,29.2c0,0,3.2,3.8,3.2,6v37.4h0l1.9-1.8V35.3c0-0.8-0.1-1.5-0.4-2.2
						c-0.3-0.7-0.7-1.3-1.2-1.8l8,0v18.1l6.2,0V31.2l6.4,0v39.4l2,1.8h0L26.1,29L26.1,29z"/>
					<polygon class="st1" points="5.1,70.7 3.2,72.5 3.2,72.6 13.5,72.5 13.5,72.5 11.5,70.7 					"/>
					<polygon class="st1" points="17.6,70.6 15.8,72.5 15.7,72.5 26.1,72.4 26,72.4 24,70.6 					"/>
					<polygon class="st1" points="11.5,53.8 13.5,55.6 15.7,55.6 17.6,53.7 					"/>
					<path class="st2" d="M11.5,53.8l6.2,0v16.9l6.4,0V31.1l-6.4,0v18.1l-6.2,0V31.2l-8.1,0c0.5,0.5,0.9,1.1,1.2,1.8
						c0.3,0.7,0.4,1.4,0.4,2.2v35.4l6.4,0L11.5,53.8L11.5,53.8z"/>
					<polygon class="st0" points="92.3,50.7 98.5,50.7 98.5,55.1 100.6,56.9 100.6,56.9 100.6,48.5 94.4,48.6 94.4,42.1 92.3,40.3 
											"/>
					<polygon class="st0" points="92.3,65.5 100.8,65.5 100.8,70.1 102.8,71.9 102.8,71.9 102.8,63.3 94.4,63.4 94.4,56.9 
						92.3,55.1 					"/>
					<path class="st0" d="M102.8,33.4l-22.4,0.2l0.4,1.6c0,0,2.5,1.7,3,2.9C84,38.5,84,39,84,39.5V72h0l1.9-1.8V39.7
						c0-0.8-0.1-1.5-0.4-2.2c-0.3-0.7-0.7-1.3-1.2-1.8l16.5-0.1v4.6l2,1.8h0L102.8,33.4L102.8,33.4z"/>
					<polygon class="st1" points="100.8,70.1 85.9,70.2 84.1,72 84,72.1 102.8,71.9 102.8,71.9 					"/>
					<polygon class="st1" points="92.3,55.1 94.4,56.9 100.6,56.9 100.6,56.9 98.5,55.1 					"/>
					<polygon class="st1" points="92.3,40.3 94.4,42.1 102.8,42.1 102.8,42 100.8,40.2 					"/>
					<path class="st2" d="M100.8,67.3v-1.8l-8.4,0.1V55.1l6.2,0v-4.4l-6.2,0V40.3l8.4,0v-4.6l-16.5,0.1c0.5,0.5,0.9,1.1,1.2,1.8
						c0.3,0.7,0.4,1.4,0.4,2.2v30.6l14.8-0.1L100.8,67.3L100.8,67.3z"/>
				</g>
			</g>
			<g>
				<polygon class="st1" points="304.8,70.7 304.4,71.7 304,70.7 303.4,70.7 303.4,72.3 303.8,72.3 303.8,71 303.8,71 304.2,72.3 
					304.6,72.3 305,71 305,72.3 305.4,72.3 305.4,70.7 				"/>
				<polygon class="st1" points="301.8,71 302.3,71 302.3,72.3 302.6,72.3 302.6,71 303.1,71 303.1,70.7 301.8,70.7 				"/>
			</g>
		</g>
		<path id="T-Mobile-Logo" class="st2" d="M141.5,3.1l-5.4,19.4h-1.3l-5.6-19.2v15.6c0,1.5,0.8,2.3,2.3,2.3h0.6v1.3h-7.2v-1.3h0.4
			c1.5,0,2.3-0.8,2.3-2.3V3.8c0-1.5-0.8-2.3-2.3-2.3h-0.4V0.3h7.2l4.2,15.5l4.3-15.5h7.1v1.3h-0.4c-1.5,0-2.3,0.8-2.3,2.3v15.1
			c0,1.5,0.8,2.3,2.3,2.3h0.4v1.3H139v-1.3h0.3c1.5,0,2.3-0.8,2.3-2.3L141.5,3.1L141.5,3.1z M155.1,6.6c-4.5,0-6.9,3.8-6.9,8.1
			s2.4,8.1,6.9,8.1s6.9-3.8,6.9-8.1S159.6,6.6,155.1,6.6z M151.9,14.8c0-4.5,1-6.8,3.2-6.8s3.2,2.3,3.2,6.8s-1.1,6.8-3.2,6.8
			S151.9,19.3,151.9,14.8C151.9,14.8,151.9,14.8,151.9,14.8z M164.6,19c0,1.1-0.1,2.3-0.4,3.4h1.5l1.1-1.7c1.2,1.3,2.9,2.1,4.7,2
			c4.1,0,6.2-3.4,6.2-8.1s-2.1-8.1-6.2-8.1c-1.5,0-2.7,0.6-3.6,1.7v-8h-5.3v1.3h0.4c1.2,0,1.6,0.5,1.6,1.6L164.6,19L164.6,19z
			 M167.7,14.7c0-2.1,0.5-6.6,3.4-6.6c2.7,0,3,4.5,3,6.6s-0.3,6.6-3.1,6.6C168.1,21.3,167.7,16.8,167.7,14.7L167.7,14.7L167.7,14.7z
			 M184.7,7.1h-5.2v1.3h0.3c1.2,0,1.6,0.4,1.6,1.6v9.6c0,1.2-0.4,1.6-1.6,1.6h-0.5v1.3h7.5v-1.3h-0.5c-1.2,0-1.6-0.5-1.6-1.6V7.1
			L184.7,7.1z M184.8,2c0-1.1-0.9-2-2-2c0,0,0,0-0.1,0c-1.1,0-2.1,0.9-2.1,2.1s0.9,2.1,2.1,2.1c0,0,0.1,0,0.1,0
			C184,4.1,184.8,3.2,184.8,2C184.8,2.1,184.8,2,184.8,2L184.8,2z M193.5,0.3h-5.2v1.3h0.3c1.2,0,1.6,0.5,1.6,1.6v16.5
			c0,1.2-0.4,1.6-1.6,1.6h-0.4v1.3h7.4v-1.3h-0.5c-1.2,0-1.6-0.5-1.6-1.6V0.3L193.5,0.3z M209.4,14.9c-0.1-3.7-1.6-8.2-6.3-8.2
			c-4.4,0-6.3,4.2-6.3,8.1s1.9,8.1,6.6,8.1c3.1,0,4.6-1.9,5.9-4.4l-1.3-0.7c-0.8,1.8-1.9,3.5-4,3.5c-3.3,0-3.4-4-3.5-6.5L209.4,14.9
			L209.4,14.9z M200.4,13.4c0.1-3.6,1.1-5.4,2.8-5.4s2.6,1.7,2.6,5.4H200.4z M102.3,10.5h-4.4v4.4h4.4
			C102.3,14.9,102.3,10.5,102.3,10.5z M116.5,0.3v7.5h-1.3V7.6c0-3.5-2-5.8-5.8-5.8h-0.2v16c0,2.2,0.9,3.1,3.1,3.1h0.7v1.5h-11.5
			v-1.5h0.7c2.2,0,3.1-0.9,3.1-3.1v-16H105c-3.8,0-5.8,2.2-5.8,5.8v0.2h-1.3V0.3H116.5L116.5,0.3z M112.1,10.5h4.4v4.4h-4.4V10.5z"
			/>
	</g>
</g>
</svg>
